<svg aria-hidden="true" style="position: absolute; width: 0; height: 0; overflow: hidden;" version="1.1" xmlns="http://www.w3.org/2000/svg" xmlns:xlink="http://www.w3.org/1999/xlink">
<defs>
<symbol id="icon-blue-cross" viewBox="0 0 32 32">
<path  d="M18.41 16l12.462-12.461c0.28-0.327 0.426-0.748 0.41-1.178s-0.195-0.838-0.499-1.143c-0.305-0.304-0.712-0.483-1.143-0.499s-0.851 0.13-1.178 0.41l-12.462 12.462-12.462-12.479c-0.327-0.28-0.748-0.426-1.178-0.41s-0.838 0.195-1.143 0.499c-0.304 0.304-0.483 0.713-0.499 1.143s0.13 0.851 0.41 1.178l12.462 12.479-12.479 12.462c-0.179 0.153-0.324 0.342-0.427 0.554s-0.16 0.443-0.169 0.679c-0.009 0.235 0.031 0.47 0.117 0.689s0.216 0.419 0.383 0.585c0.167 0.167 0.366 0.297 0.585 0.383s0.454 0.126 0.69 0.117 0.466-0.067 0.679-0.169c0.212-0.103 0.401-0.248 0.554-0.427l12.479-12.462 12.462 12.462c0.327 0.28 0.748 0.426 1.178 0.41s0.838-0.195 1.143-0.499c0.305-0.304 0.483-0.712 0.499-1.143s-0.13-0.851-0.41-1.178l-12.462-12.462z"></path>
</symbol>
<symbol id="icon-burger" viewBox="0 0 57 32">
<path  d="M56.889 1.778c0 0.982-0.796 1.778-1.778 1.778h-53.333c-0.982 0-1.778-0.796-1.778-1.778s0.796-1.778 1.778-1.778h53.333c0.982 0 1.778 0.796 1.778 1.778zM56.889 30.222c0 0.982-0.796 1.778-1.778 1.778h-53.333c-0.982 0-1.778-0.796-1.778-1.778s0.796-1.778 1.778-1.778h53.333c0.982 0 1.778 0.796 1.778 1.778zM56.889 15.986c0 0.974-0.789 1.764-1.764 1.764h-53.362c-0.974 0-1.764-0.79-1.764-1.764s0.79-1.764 1.764-1.764h53.362c0.974 0 1.764 0.79 1.764 1.764z"></path>
</symbol>
<symbol id="icon-loader" viewBox="0 0 32 32">
<path fill="none" stroke="#487996" style="stroke: var(--color1, #487996)" stroke-linejoin="round" stroke-linecap="round" stroke-miterlimit="4" stroke-width="1.0323" d="M16 0.516v4.424"></path>
<path fill="none" stroke="#487996" style="stroke: var(--color1, #487996)" stroke-linejoin="round" stroke-linecap="round" stroke-miterlimit="4" stroke-width="1.0323" d="M27.060 4.94l-3.318 3.318"></path>
<path fill="none" stroke="#487996" style="stroke: var(--color1, #487996)" stroke-linejoin="round" stroke-linecap="round" stroke-miterlimit="4" stroke-width="1.0323" d="M4.94 4.94l3.318 3.318"></path>
<path fill="none" stroke="#487996" style="stroke: var(--color1, #487996)" stroke-linejoin="round" stroke-linecap="round" stroke-miterlimit="4" stroke-width="1.0323" d="M16 31.484v-4.424"></path>
<path fill="none" stroke="#487996" style="stroke: var(--color1, #487996)" stroke-linejoin="round" stroke-linecap="round" stroke-miterlimit="4" stroke-width="1.0323" d="M27.060 27.060l-3.318-3.318"></path>
<path fill="none" stroke="#487996" style="stroke: var(--color1, #487996)" stroke-linejoin="round" stroke-linecap="round" stroke-miterlimit="4" stroke-width="1.0323" d="M4.94 27.060l3.318-3.318"></path>
<path fill="none" stroke="#487996" style="stroke: var(--color1, #487996)" stroke-linejoin="round" stroke-linecap="round" stroke-miterlimit="4" stroke-width="1.0323" d="M0.516 16h4.424"></path>
<path fill="none" stroke="#487996" style="stroke: var(--color1, #487996)" stroke-linejoin="round" stroke-linecap="round" stroke-miterlimit="4" stroke-width="1.0323" d="M27.060 16h4.424"></path>
</symbol>
<symbol id="icon-next-left" viewBox="0 0 18 32">
<path fill="#fff" style="fill: var(--color2, #fff)" d="M18.4 2.144l-14.087 13.856 14.087 13.856-2.176 2.144-16.224-16.008 16.224-15.992 2.176 2.144z"></path>
</symbol>
<symbol id="icon-next-right" viewBox="0 0 22 32">
<path fill="#fff" style="fill: var(--color2, #fff)" d="M2.819 29.197l14.758-13.196-14.758-13.196 2.28-2.042 16.997 15.246-16.997 15.23-2.28-2.042z"></path>
</symbol>
<symbol id="icon-paper-clip" viewBox="0 0 35 32">
<path fill="#cdcdcd" style="fill: var(--color3, #cdcdcd)" d="M6.3 32c-1.489 0-2.811-0.559-3.967-1.677-1.222-1.183-1.833-2.618-1.833-4.306s0.611-3.124 1.833-4.306l19.167-19.677c0.978-0.968 2.106-1.591 3.383-1.871s2.572-0.204 3.883 0.226c1.311 0.43 2.522 1.172 3.633 2.226 0.356 0.366 0.683 0.769 0.983 1.21s0.544 0.903 0.733 1.387c0.189 0.484 0.333 0.995 0.433 1.532s0.15 1.075 0.15 1.613c-0.044 2.28-0.844 4.183-2.4 5.71l-14.5 14.903c-0.2 0.215-0.444 0.328-0.733 0.339s-0.539-0.081-0.75-0.274c-0.211-0.194-0.322-0.436-0.333-0.726s0.083-0.543 0.283-0.758l14.5-14.903c1.178-1.161 1.778-2.602 1.8-4.323s-0.544-3.129-1.7-4.226c-0.711-0.71-1.5-1.247-2.367-1.613s-1.8-0.484-2.8-0.355c-1 0.129-1.889 0.57-2.667 1.323l-19.167 19.677c-0.822 0.796-1.233 1.753-1.233 2.871s0.411 2.075 1.233 2.871c0.378 0.366 0.789 0.64 1.233 0.823s0.911 0.253 1.4 0.21c0.978-0.043 1.889-0.484 2.733-1.323l15.233-15.677c0.111-0.108 0.217-0.22 0.317-0.339s0.206-0.258 0.317-0.419c0.111-0.161 0.2-0.333 0.267-0.516s0.111-0.366 0.133-0.548-0.011-0.371-0.1-0.565c-0.089-0.194-0.222-0.376-0.4-0.548-0.422-0.43-0.833-0.624-1.233-0.581-0.422 0.043-0.9 0.312-1.433 0.806l-11.467 11.806c-0.133 0.129-0.289 0.22-0.467 0.274s-0.361 0.059-0.55 0.016c-0.189-0.043-0.35-0.129-0.483-0.258-0.222-0.194-0.333-0.43-0.333-0.71s0.1-0.527 0.3-0.742l11.467-11.839c0.911-0.86 1.833-1.333 2.767-1.419 1.067-0.086 2.044 0.301 2.933 1.161 0.844 0.796 1.217 1.731 1.117 2.806s-0.639 2.086-1.617 3.032l-15.233 15.71c-1.244 1.204-2.633 1.849-4.167 1.935-0.044 0-0.094 0.005-0.15 0.016s-0.106 0.016-0.15 0.016z"></path>
</symbol>
<symbol id="icon-rectangle" viewBox="0 0 32 32">
<path fill="#487996" style="fill: var(--color1, #487996)" d="M0 13.714c0-7.574 6.14-13.714 13.714-13.714h18.286v18.286c0 7.574-6.14 13.714-13.714 13.714h-18.286v-18.286z"></path>
</symbol>
<symbol id="icon-round-call" viewBox="0 0 32 32">
<path fill="#008cef" style="fill: var(--color4, #008cef)" d="M27.247 21.071l-3.951-0.451c-0.465-0.055-0.936-0.003-1.377 0.15s-0.843 0.405-1.174 0.736l-2.862 2.862c-4.416-2.246-8.005-5.835-10.251-10.251l2.878-2.878c0.669-0.669 0.996-1.602 0.887-2.551l-0.451-3.92c-0.088-0.759-0.452-1.459-1.023-1.966s-1.308-0.788-2.072-0.787h-2.691c-1.758 0-3.22 1.462-3.111 3.22 0.824 13.284 11.449 23.893 24.718 24.718 1.758 0.109 3.22-1.353 3.22-3.111v-2.691c0.015-1.571-1.167-2.893-2.738-3.080z"></path>
</symbol>
<symbol id="icon-to-down" viewBox="0 0 22 32">
<path fill="#008cef" style="fill: var(--color4, #008cef)" d="M11.034 0c-0.293 0-0.573 0.116-0.78 0.323s-0.323 0.488-0.323 0.78v26.026l-6.943-6.945c-0.207-0.207-0.488-0.324-0.781-0.324s-0.574 0.116-0.781 0.324c-0.207 0.207-0.324 0.488-0.324 0.781s0.116 0.574 0.324 0.781l8.828 8.828c0.102 0.103 0.224 0.184 0.358 0.24s0.278 0.084 0.423 0.084c0.145 0 0.289-0.029 0.423-0.084s0.256-0.137 0.358-0.24l8.828-8.828c0.103-0.103 0.184-0.224 0.24-0.358s0.084-0.278 0.084-0.423c0-0.293-0.116-0.574-0.324-0.781s-0.488-0.324-0.781-0.324c-0.293 0-0.574 0.116-0.781 0.324l-6.943 6.945v-26.026c0-0.293-0.116-0.573-0.323-0.78s-0.488-0.323-0.78-0.323z"></path>
</symbol>
<symbol id="icon-triangle-down-black" viewBox="0 0 48 32">
<path d="M26.446 29.102c-1.278 1.515-3.613 1.515-4.891 0l-19.44-23.038c-1.756-2.081-0.277-5.264 2.446-5.264h38.88c2.722 0 4.201 3.183 2.445 5.264l-19.44 23.038z"></path>
</symbol>
<symbol id="icon-triangle-down-blue" viewBox="0 0 107 32">
<path fill="#008cef" style="fill: var(--color4, #008cef)" d="M53.333 32l-46.188-32h92.376l-46.188 32z"></path>
</symbol>
<symbol id="icon-triangle-up-blue" viewBox="0 0 107 32">
<path fill="#008cef" style="fill: var(--color4, #008cef)" d="M53.333 0l46.188 32h-92.376l46.188-32z"></path>
</symbol>
<symbol id="icon-triangle-up-black" viewBox="0 0 48 32">
<path d="M21.554 2.898c1.278-1.515 3.613-1.515 4.891 0l19.44 23.038c1.756 2.081 0.277 5.264-2.445 5.264h-38.88c-2.722 0-4.201-3.183-2.446-5.264l19.44-23.038z"></path>
</symbol>
</defs>
</svg>
